<svg xmlns="http://www.w3.org/2000/svg" viewBox="0 0 512 512" role="img" aria-label="Snake Sprint icon">
  <defs>
    <linearGradient id="bg" x1="0" y1="0" x2="1" y2="1">
      <stop offset="0%" stop-color="#f6f2e8"/>
      <stop offset="100%" stop-color="#efe8db"/>
    </linearGradient>
    <linearGradient id="snake" x1="0" y1="0" x2="1" y2="1">
      <stop offset="0%" stop-color="#2eaa8f"/>
      <stop offset="100%" stop-color="#1a7f64"/>
    </linearGradient>
  </defs>
  <rect width="512" height="512" rx="108" fill="url(#bg)"/>
  <path d="M130 282c0-66 50-116 122-116h110c16 0 28 12 28 28s-12 28-28 28H252c-40 0-66 24-66 60s26 60 66 60h54c24 0 42-18 42-42s-18-42-42-42h-40c-15 0-26-11-26-26s11-26 26-26h40c54 0 98 44 98 98s-44 98-98 98h-54c-72 0-122-50-122-120Z" fill="url(#snake)"/>
  <circle cx="330" cy="304" r="9" fill="#f6f2e8"/>
  <circle cx="356" cy="304" r="9" fill="#f6f2e8"/>
  <circle cx="402" cy="130" r="30" fill="#e4572e"/>
</svg>
